<svg width="1620" height="141" viewBox="0 0 1620 141" fill="none" xmlns="http://www.w3.org/2000/svg">
<path d="M82.992 132.132L48.984 138.996V85.488L2.09287e-05 6.39599H37.908L66.144 56.004L94.38 6.39599H132.288L82.992 85.956V132.132ZM212.076 90.324L183.372 93.756V64.428L243.9 58.032V83.616C243.9 89.856 243.276 97.812 241.716 103.584C235.32 126.204 216.288 139.152 188.988 139.776C155.448 140.4 129.864 121.368 129.084 82.212L128.772 62.712C127.992 23.4 152.64 3.12 186.18 2.33999C214.884 1.716 236.412 17.004 242.808 47.268L210.36 51.324C207.552 37.596 199.284 31.2 186.804 31.512C171.828 31.824 161.376 40.404 161.844 60.684L162.156 82.368C162.78 102.336 173.388 110.76 188.364 110.604C201.312 110.448 212.076 102.96 212.076 90.324ZM392.523 135.72H299.079V6.39599H390.963V35.568H332.151V56.784L384.567 51.168V80.34L332.151 85.956V108.264L392.523 101.4V135.72ZM507.902 130.884L475.454 137.28V87.516C475.454 74.568 467.498 68.328 458.45 69.108C447.842 70.2 441.758 76.908 441.29 88.764V132.444L408.842 138.996V43.212H441.29V51.012C446.438 44.148 459.698 40.248 469.058 39.936C492.302 39.156 507.902 56.316 507.902 85.02V130.884ZM572.37 132.132L539.922 138.996V74.256L517.926 76.284V45.084L539.922 43.056V6.39599H572.37V40.092L594.366 37.908V69.108L572.37 71.292V132.132ZM699.27 91.884L634.842 98.592C637.338 107.016 643.266 114.036 650.442 114.036C657.462 114.036 662.766 112.008 665.106 103.74L698.802 100.464C694.746 127.608 673.062 139.776 650.442 139.776C622.206 139.776 600.99 121.68 600.99 89.7C600.99 57.564 622.206 39.936 650.442 39.936C674.31 39.936 692.562 52.26 698.334 74.1C699.894 80.184 699.894 87.048 699.27 91.884ZM634.218 82.368L667.602 79.248C665.262 69.108 658.086 64.896 650.91 65.676C642.954 66.3 636.09 71.916 634.218 82.368ZM801.539 76.44L768.623 80.028C766.283 72.228 763.007 68.172 757.391 69.108C750.059 70.512 745.535 76.908 745.067 88.764V132.444L712.619 138.996V43.212H745.067V51.012C750.215 44.148 758.639 40.248 767.999 39.936C788.903 39.312 798.731 52.884 801.539 76.44ZM858.167 132.132L825.719 138.996V74.256L803.723 76.284V45.084L825.719 43.056V6.39599H858.167V40.092L880.163 37.908V69.108L858.167 71.292V132.132ZM989.279 132.444L956.831 138.996V126.984C951.839 136.032 943.883 139.776 932.339 139.776C907.223 139.776 886.787 121.68 886.787 89.7C886.787 57.564 907.223 39.936 932.339 39.936C942.011 39.936 950.435 43.68 956.831 50.544V43.212H989.279V132.444ZM937.955 112.164C948.095 112.164 956.831 102.804 956.831 89.7C956.831 76.284 948.095 67.548 937.955 67.548C927.815 67.548 919.235 76.284 919.235 89.7C919.235 102.804 927.815 112.164 937.955 112.164ZM1041.27 132.132L1008.2 138.996V43.212H1041.27V132.132ZM1046.42 20.904L1024.73 41.808L1003.05 20.904L1024.73 -7.15256e-06L1046.42 20.904ZM1159.32 130.884L1126.88 137.28V87.516C1126.88 74.568 1118.92 68.328 1109.87 69.108C1099.26 70.2 1093.18 76.908 1092.71 88.764V132.444L1060.26 138.996V43.212H1092.71V51.012C1097.86 44.148 1111.12 40.248 1120.48 39.936C1143.72 39.156 1159.32 56.316 1159.32 85.02V130.884ZM1311.62 129.168L1282.45 135.72V87.516C1282.45 74.568 1277.61 68.328 1270.44 69.108C1261.86 70.2 1257.8 77.22 1257.33 89.7V129.948L1231.44 136.5V87.516C1231.44 74.568 1226.76 68.328 1219.42 69.108C1211 70.2 1206.16 76.908 1205.7 88.764V132.444L1174.81 138.996V43.212H1205.7V51.012C1209.91 44.148 1220.36 40.248 1227.85 39.936C1237.83 39.624 1245.63 44.304 1250.62 53.196C1251.25 52.572 1251.72 51.792 1252.5 51.012C1258.11 45.084 1266.54 40.248 1275.58 39.936C1294.3 39.312 1311.62 51.48 1311.62 80.184V129.168ZM1420.62 91.884L1356.19 98.592C1358.69 107.016 1364.61 114.036 1371.79 114.036C1378.81 114.036 1384.11 112.008 1386.45 103.74L1420.15 100.464C1416.09 127.608 1394.41 139.776 1371.79 139.776C1343.55 139.776 1322.34 121.68 1322.34 89.7C1322.34 57.564 1343.55 39.936 1371.79 39.936C1395.66 39.936 1413.91 52.26 1419.68 74.1C1421.24 80.184 1421.24 87.048 1420.62 91.884ZM1355.57 82.368L1388.95 79.248C1386.61 69.108 1379.43 64.896 1372.26 65.676C1364.3 66.3 1357.44 71.916 1355.57 82.368ZM1532.87 130.884L1500.42 137.28V87.516C1500.42 74.568 1492.47 68.328 1483.42 69.108C1472.81 70.2 1466.73 76.908 1466.26 88.764V132.444L1433.81 138.996V43.212H1466.26V51.012C1471.41 44.148 1484.67 40.248 1494.03 39.936C1517.27 39.156 1532.87 56.316 1532.87 85.02V130.884ZM1597.34 132.132L1564.89 138.996V74.256L1542.89 76.284V45.084L1564.89 43.056V6.39599H1597.34V40.092L1619.33 37.908V69.108L1597.34 71.292V132.132Z" fill="#1C1C1C"/>
</svg>
