<svg width="70" height="70" viewBox="0 0 70 70" fill="none" xmlns="http://www.w3.org/2000/svg">
<path d="M53.69 12.11C52.8593 12.11 52.0473 12.3563 51.3566 12.8178C50.6659 13.2793 50.1276 13.9353 49.8097 14.7027C49.4918 15.4702 49.4086 16.3147 49.5707 17.1294C49.7328 17.9441 50.1328 18.6925 50.7202 19.2798C51.3075 19.8672 52.0559 20.2672 52.8706 20.4293C53.6853 20.5914 54.5298 20.5082 55.2973 20.1903C56.0647 19.8724 56.7207 19.3341 57.1822 18.6434C57.6437 17.9527 57.89 17.1407 57.89 16.31C57.89 15.1961 57.4475 14.1278 56.6598 13.3402C55.8722 12.5525 54.8039 12.11 53.69 12.11ZM69.79 20.58C69.7219 17.676 69.178 14.8029 68.18 12.075C67.2901 9.74096 65.9049 7.62747 64.12 5.88C62.3869 4.08599 60.2685 2.70962 57.925 1.855C55.2043 0.826563 52.328 0.270235 49.42 0.21C45.71 -1.95578e-07 44.52 0 35 0C25.48 0 24.29 -1.95578e-07 20.58 0.21C17.672 0.270235 14.7957 0.826563 12.075 1.855C9.73587 2.71827 7.61927 4.09346 5.88 5.88C4.08599 7.61312 2.70962 9.73154 1.855 12.075C0.826563 14.7957 0.270235 17.672 0.21 20.58C-1.95578e-07 24.29 0 25.48 0 35C0 44.52 -1.95578e-07 45.71 0.21 49.42C0.270235 52.328 0.826563 55.2043 1.855 57.925C2.70962 60.2685 4.08599 62.3869 5.88 64.12C7.61927 65.9065 9.73587 67.2817 12.075 68.145C14.7957 69.1734 17.672 69.7298 20.58 69.79C24.29 70 25.48 70 35 70C44.52 70 45.71 70 49.42 69.79C52.328 69.7298 55.2043 69.1734 57.925 68.145C60.2685 67.2904 62.3869 65.914 64.12 64.12C65.9128 62.379 67.2992 60.2637 68.18 57.925C69.178 55.1971 69.7219 52.324 69.79 49.42C69.79 45.71 70 44.52 70 35C70 25.48 70 24.29 69.79 20.58ZM63.49 49C63.4645 51.2217 63.0621 53.423 62.3 55.51C61.7412 57.0332 60.8436 58.4095 59.675 59.535C58.5398 60.6918 57.1663 61.5875 55.65 62.16C53.563 62.9221 51.3617 63.3245 49.14 63.35C45.64 63.525 44.345 63.56 35.14 63.56C25.935 63.56 24.64 63.56 21.14 63.35C18.8331 63.3932 16.5361 63.038 14.35 62.3C12.9002 61.6983 11.5897 60.8048 10.5 59.675C9.33831 58.5506 8.45195 57.1732 7.91 55.65C7.0555 53.533 6.58155 51.2818 6.51 49C6.51 45.5 6.3 44.205 6.3 35C6.3 25.795 6.3 24.5 6.51 21C6.52569 18.7287 6.94033 16.4778 7.735 14.35C8.35116 12.8727 9.29693 11.5558 10.5 10.5C11.5633 9.29659 12.8775 8.34084 14.35 7.7C16.4834 6.93015 18.732 6.52778 21 6.51C24.5 6.51 25.795 6.3 35 6.3C44.205 6.3 45.5 6.3 49 6.51C51.2217 6.53548 53.423 6.93786 55.51 7.7C57.1005 8.29028 58.528 9.24996 59.675 10.5C60.822 11.5751 61.7182 12.8896 62.3 14.35C63.0779 16.4813 63.4805 18.7312 63.49 21C63.665 24.5 63.7 25.795 63.7 35C63.7 44.205 63.665 45.5 63.49 49ZM35 17.045C31.4503 17.0519 27.9824 18.1108 25.0343 20.088C22.0862 22.0651 19.7903 24.8717 18.4367 28.1531C17.0831 31.4346 16.7325 35.0436 17.4293 38.5243C18.126 42.0049 19.8388 45.2009 22.3513 47.7084C24.8637 50.216 28.063 51.9226 31.545 52.6125C35.027 53.3025 38.6353 52.9449 41.9141 51.5849C45.1929 50.2249 47.9951 47.9235 49.9664 44.9716C51.9378 42.0197 52.99 38.5497 52.99 35C52.9946 32.6379 52.5322 30.2981 51.6293 28.1153C50.7265 25.9326 49.401 23.9498 47.729 22.2812C46.0571 20.6125 44.0718 19.2909 41.8873 18.3923C39.7028 17.4936 37.3621 17.0358 35 17.045ZM35 46.655C32.6949 46.655 30.4415 45.9714 28.5248 44.6908C26.6082 43.4101 25.1143 41.5898 24.2322 39.4602C23.35 37.3305 23.1192 34.9871 23.5689 32.7262C24.0187 30.4654 25.1287 28.3887 26.7587 26.7587C28.3887 25.1287 30.4654 24.0187 32.7262 23.5689C34.9871 23.1192 37.3305 23.35 39.4602 24.2322C41.5898 25.1143 43.4101 26.6082 44.6908 28.5248C45.9714 30.4415 46.655 32.6949 46.655 35C46.655 36.5306 46.3535 38.0461 45.7678 39.4602C45.1821 40.8742 44.3236 42.1591 43.2413 43.2413C42.1591 44.3236 40.8742 45.1821 39.4602 45.7678C38.0461 46.3535 36.5306 46.655 35 46.655Z" fill="#1C1C1C"/>
</svg>
