<svg width="69" height="49" viewBox="0 0 69 49" fill="none" xmlns="http://www.w3.org/2000/svg">
<path d="M68.9841 17.2691C69.1391 12.7351 68.158 8.235 66.1318 4.18666C64.7571 2.52553 62.8492 1.40452 60.7407 1.01899C52.0193 0.21923 43.2619 -0.108564 34.5059 0.0370088C25.7818 -0.115171 17.0558 0.202045 8.3651 0.987311C6.64689 1.30318 5.05681 2.11767 3.78889 3.33139C0.967948 5.96055 0.65451 10.4586 0.341071 14.2599C-0.11369 21.0943 -0.11369 27.9519 0.341071 34.7864C0.431749 36.9258 0.746955 39.0495 1.28139 41.1217C1.65932 42.7216 2.42394 44.2018 3.5068 45.4297C4.78333 46.7077 6.41045 47.5686 8.17703 47.9005C14.9345 48.7435 21.7433 49.0928 28.5505 48.9458C39.5209 49.1042 49.1434 48.9458 60.5213 48.0589C62.3312 47.7473 64.0042 46.8854 65.3169 45.5881C66.1944 44.7009 66.8498 43.615 67.2289 42.4204C68.3498 38.9443 68.9004 35.3062 68.8587 31.6504C68.9841 29.8765 68.9841 19.1697 68.9841 17.2691ZM27.4222 33.551V13.9431L45.9777 23.7945C40.7746 26.7088 33.9103 30.0032 27.4222 33.551Z" fill="#1C1C1C"/>
</svg>
