<svg width="70" height="57" viewBox="0 0 70 57" fill="none" xmlns="http://www.w3.org/2000/svg">
<path d="M54.0409 27.714C51.4782 26.7226 51.4782 26.7226 52.1703 23.9729C53.5171 19.2403 51.4407 16.3596 46.5585 16.1164C46.1364 16.0603 45.7087 16.0603 45.2865 16.1164C42.2749 16.8273 39.282 17.5755 36.2891 18.2676C35.7195 18.3522 35.1439 18.3897 34.5681 18.3798C34.5401 17.8565 34.5401 17.3319 34.5681 16.8086C34.79 15.5712 34.9399 14.3221 35.0171 13.0674C35.0783 12.3765 34.9863 11.6807 34.7477 11.0295C34.509 10.3783 34.1296 9.78773 33.6365 9.29999C33.1434 8.81226 32.5488 8.43934 31.895 8.20784C31.2412 7.97634 30.5444 7.89196 29.8543 7.96072C28.0974 7.94231 26.3526 8.2532 24.7102 8.87731C19.4754 10.9416 14.7103 14.0395 10.6994 17.9862C6.68842 21.9328 3.5139 26.6473 1.36535 31.848C-1.64628 39.0497 0.411356 45.4471 6.6778 50.0675C13.4867 55.0619 21.3057 56.708 29.5737 56.7267H31.9493C41.3022 56.2217 49.8882 53.528 56.7158 46.7004C57.6304 45.787 58.4513 44.7844 59.1662 43.7075C63.5621 37.0108 61.4858 30.5947 54.0409 27.714ZM45.7542 45.7651C41.9144 49.4683 36.98 51.8305 31.6874 52.4992C26.0962 53.6031 20.3005 52.9496 15.0954 50.6286C5.21874 46.0457 4.32087 36.3374 13.1313 30.0523C17.8581 26.7239 23.4934 24.9282 29.2744 24.9082C34.4481 24.6258 39.5846 25.9311 43.9958 28.6493C50.6364 33.0078 51.3472 40.0599 45.7542 45.7651ZM69.8659 15.3869C69.5054 12.9407 68.6451 10.5949 67.3385 8.49556C66.032 6.39625 64.3073 4.5884 62.2718 3.18459C60.2362 1.78077 57.9335 0.811058 55.5069 0.335827C53.0804 -0.139403 50.5819 -0.10997 48.1672 0.422291C47.8458 0.448656 47.5334 0.541765 47.25 0.695671C46.9665 0.849578 46.7183 1.0609 46.5212 1.31614C46.324 1.57138 46.1823 1.86493 46.105 2.17805C46.0276 2.49116 46.0165 2.81696 46.0722 3.13463C46.1227 3.46598 46.2413 3.78329 46.4203 4.06666C46.5993 4.35002 46.835 4.59332 47.1125 4.78127C47.3901 4.96921 47.7035 5.09776 48.033 5.15883C48.3626 5.2199 48.7013 5.21218 49.0277 5.13615L51.74 4.91168C53.8218 4.83881 55.8896 5.27831 57.7617 6.19155C59.6339 7.1048 61.2531 8.46385 62.4772 10.1493C63.8041 11.7603 64.7231 13.6675 65.1562 15.7092C65.5893 17.7508 65.5237 19.8669 64.965 21.8778C64.4039 24.1412 64.965 25.301 66.5363 25.619C68.1076 25.937 69.3048 25.2075 69.5854 23.075C70.0184 20.536 70.1128 17.9507 69.8659 15.3869ZM57.9317 22.4951C59.4094 22.7196 60.1015 21.8404 60.4382 20.4562C60.7513 19.1648 60.7656 17.819 60.4801 16.5212C60.1946 15.2235 59.6168 14.008 58.7906 12.9672C57.9645 11.9264 56.9118 11.0878 55.7127 10.5152C54.5136 9.94265 53.1997 9.65116 51.871 9.66295H51.1415C49.645 9.66295 48.3356 10.1493 48.3356 11.8141C48.3356 13.4789 49.6263 13.8343 51.1602 13.7969C54.9013 13.7034 56.7719 16.0042 56.3042 19.708C56.1733 21.0361 56.3417 22.2519 57.9317 22.4951ZM29.424 30.5573C27.2094 30.2164 24.9438 30.4856 22.8707 31.336C20.7976 32.1863 18.9955 33.5856 17.6581 35.3834C16.5545 36.6496 15.8559 38.2175 15.6525 39.8848C15.4491 41.552 15.7502 43.242 16.517 44.7363C18.3876 48.4775 21.9043 49.7869 25.739 50.0113C28.6145 50.0046 31.4105 49.0661 33.7077 47.3364C35.3241 46.2708 36.5805 44.7411 37.3116 42.9483C38.0427 41.1556 38.2145 39.1836 37.8042 37.2914C37.2869 35.4337 36.2001 33.7849 34.6969 32.5769C33.1937 31.369 31.3496 30.6626 29.424 30.5573ZM22.8209 45.6342C22.4105 45.6569 21.9997 45.5984 21.612 45.4621C21.2243 45.3257 20.8673 45.1142 20.5614 44.8397C20.2556 44.5651 20.0069 44.2329 19.8297 43.8621C19.6525 43.4912 19.5502 43.0891 19.5287 42.6787C19.6049 41.5987 20.0908 40.5886 20.8871 39.8549C21.6833 39.1213 22.7297 38.7195 23.8123 38.7317C24.2368 38.6931 24.6647 38.7424 25.0694 38.8763C25.474 39.0103 25.8468 39.2261 26.1644 39.5104C26.482 39.7947 26.7377 40.1413 26.9155 40.5287C27.0934 40.9161 27.1895 41.3359 27.198 41.7621C27.0894 42.85 26.5707 43.8557 25.7472 44.5749C24.9238 45.2941 23.8574 45.6729 22.7648 45.6342H22.8209ZM29.8356 39.4426C29.5901 39.524 29.3263 39.533 29.0759 39.4685C28.8254 39.4041 28.5988 39.2688 28.4231 39.079C28.2474 38.8892 28.1301 38.6528 28.0852 38.3981C28.0403 38.1434 28.0697 37.8811 28.1698 37.6427C28.27 37.4042 28.4367 37.1997 28.65 37.0534C28.8633 36.9072 29.1142 36.8254 29.3728 36.818C29.6313 36.8105 29.8865 36.8777 30.1079 37.0114C30.3293 37.1451 30.5075 37.3397 30.6212 37.572C30.7503 37.9321 30.7347 38.3283 30.5777 38.6771C30.4208 39.026 30.1346 39.3004 29.7794 39.4426H29.8356Z" fill="#1C1C1C"/>
</svg>
