<svg width="70" height="70" viewBox="0 0 70 70" fill="none" xmlns="http://www.w3.org/2000/svg">
<path fill-rule="evenodd" clip-rule="evenodd" d="M68.861 6.63876C70.3796 5.12003 70.3796 2.65774 68.861 1.13902C67.3423 -0.379672 64.8799 -0.379672 63.3613 1.13902L40.2422 24.2581L23.6189 1.58919C22.8863 0.590216 21.7216 0 20.4828 0H3.88889C2.42344 0 1.08239 0.823823 0.42 2.13103C-0.242433 3.43825 -0.11375 5.00683 0.75285 6.18858L25.1043 39.396L1.13902 63.3613C-0.379672 64.8799 -0.379672 67.3423 1.13902 68.861C2.65775 70.3796 5.12003 70.3796 6.63876 68.861L29.7578 45.7419L46.3812 68.411C47.1139 69.4097 48.2786 70 49.5172 70H66.1111C67.5765 70 68.9177 69.1763 69.58 67.8689C70.2423 66.5618 70.114 64.9931 69.2471 63.8112L44.8957 30.604L68.861 6.63876ZM36.4401 32.2253C36.5602 32.4256 36.6998 32.6169 36.8593 32.7973L58.4368 62.2222H51.4881L11.5631 7.77778H18.5121L36.4401 32.2253Z" fill="#1C1C1C"/>
</svg>
